# xmcd
#
# Track frame offsets:
#	150
#	13635
#	30241
#	49454
#	64965
#	87450
#	100794
#	119815
#	138065
#	153221
#	169385
#	187648
#
# Disc length: 2664 seconds
#
# Revision: 0
# Processed by: cddbd v1.5.2PL0 Copyright (c) Steve Scherf et al.
# Submitted via: EasyCDDAExtractor 16.0.9.1
#
DISCID=980a660c
DTITLE=Volkan Konak - Maranda
DYEAR=2003
DGENRE=Turkish, Folk, Country
TTITLE0=Gül Ektim
TTITLE1=Feriğim
TTITLE2=Herkesin Bir Derdi Var (Cerrahpaşa)
TTITLE3=Gurbetçilerin Türküsü
TTITLE4=Trablus
TTITLE5=Zigana Dağları
TTITLE6=Dido
TTITLE7=Penceresi Önünde
TTITLE8=Che
TTITLE9=Hastahane Önünde
TTITLE10=Ela Ela Leose
TTITLE11=Vasiyet
EXTD=
EXTT0=
EXTT1=
EXTT2=
EXTT3=
EXTT4=
EXTT5=
EXTT6=
EXTT7=
EXTT8=
EXTT9=
EXTT10=
EXTT11=
PLAYORDER=
